static_grf.mot
version=1
nRows=25
nColumns 19
inDegrees=yes
endheader
time	1_ground_force_vx	1_ground_force_vy	1_ground_force_vz	1_ground_force_px	1_ground_force_py	1_ground_force_pz	1_ground_torque_x	1_ground_torque_y	1_ground_torque_z	2_ground_force_vx	2_ground_force_vy	2_ground_force_vz	2_ground_force_px	2_ground_force_py	2_ground_force_pz	2_ground_torque_x	2_ground_torque_y	2_ground_torque_z
            0.992500	           -0.645261	          408.236205	          -25.028614	           -0.274423	            0.006226	           -0.407838	           -0.003192	            2.019655	           -0.123823	           -0.735664	          440.576585	           27.757865	           -0.278895	            0.005434	           -0.685817	            0.002894	           -1.733406	           -0.109211
            0.993000	           -0.919797	          407.874835	          -24.846054	           -0.274542	            0.006226	           -0.407772	           -0.004471	            1.982527	           -0.120767	           -1.015166	          440.205113	           28.366736	           -0.278931	            0.005434	           -0.685819	            0.003948	           -1.711822	           -0.110310
            0.993500	           -0.782041	          407.874468	          -24.754683	           -0.274343	            0.006226	           -0.407854	           -0.003824	            1.994433	           -0.121046	           -1.203272	          440.388911	           28.273617	           -0.278914	            0.005434	           -0.685837	            0.004640	           -1.698192	           -0.109026
            0.994000	           -0.965524	          406.613193	          -24.897207	           -0.274529	            0.006228	           -0.408299	           -0.004803	            2.022821	           -0.123859	           -0.970454	          440.758875	           28.040191	           -0.278748	            0.005435	           -0.685707	            0.003761	           -1.708095	           -0.108666
            0.994500	           -0.782367	          408.415689	          -24.844076	           -0.274657	            0.006226	           -0.407798	           -0.003808	            1.988097	           -0.120937	           -0.878748	          441.311697	           28.042122	           -0.278900	            0.005435	           -0.685893	            0.003455	           -1.735295	           -0.110265
            0.995000	           -1.057961	          408.236322	          -25.073446	           -0.274562	            0.006225	           -0.407571	           -0.005158	            1.990162	           -0.122234	           -0.971057	          440.942514	           28.181632	           -0.278723	            0.005435	           -0.685854	            0.003837	           -1.742230	           -0.111350
            0.995500	           -0.966162	          408.236143	          -25.027818	           -0.274546	            0.006226	           -0.407887	           -0.004825	            2.038544	           -0.124977	           -1.205224	          440.940999	           28.369444	           -0.278858	            0.005435	           -0.685979	            0.004598	           -1.682095	           -0.108223
            0.996000	           -1.011858	          408.055703	          -24.982621	           -0.274529	            0.006226	           -0.407720	           -0.004963	            2.001603	           -0.122545	           -1.156484	          440.389583	           28.132812	           -0.278824	            0.005434	           -0.685709	            0.004578	           -1.743452	           -0.111375
            0.996500	           -0.737240	          408.597112	          -25.118553	           -0.274342	            0.006225	           -0.407576	           -0.003722	            2.062866	           -0.126815	           -1.110319	          440.574060	           28.086521	           -0.278803	            0.005435	           -0.685814	            0.004428	           -1.757048	           -0.112011
            0.997000	           -0.644952	          408.415912	          -24.890273	           -0.274355	            0.006225	           -0.407572	           -0.003236	            2.049341	           -0.124894	           -0.969084	          440.390259	           28.132733	           -0.278870	            0.005435	           -0.685881	            0.003775	           -1.715601	           -0.109595
            0.997500	           -0.690388	          408.054782	          -24.754138	           -0.274678	            0.006226	           -0.407692	           -0.003429	            2.026698	           -0.122947	           -1.205951	          441.125703	           28.229317	           -0.278621	            0.005436	           -0.685913	            0.004693	           -1.716513	           -0.109846
            0.998000	           -0.965785	          406.793821	          -24.988146	           -0.274836	            0.006228	           -0.408332	           -0.004765	            2.007035	           -0.123286	           -0.878043	          441.127221	           28.135321	           -0.278745	            0.005436	           -0.686214	            0.003492	           -1.754233	           -0.111886
            0.998500	           -0.874311	          407.334863	          -25.031910	           -0.274811	            0.006226	           -0.407901	           -0.004381	            2.041165	           -0.125436	           -1.346583	          441.125865	           28.041664	           -0.278672	            0.005436	           -0.685912	            0.005096	           -1.669493	           -0.106127
            0.999000	           -0.919959	          407.514696	          -24.939312	           -0.274714	            0.006227	           -0.407917	           -0.004494	            1.990782	           -0.121833	           -0.968440	          440.206286	           28.085148	           -0.279061	            0.005433	           -0.685521	            0.003781	           -1.718687	           -0.109652
            0.999500	           -0.874164	          407.154371	          -24.986827	           -0.274505	            0.006227	           -0.408011	           -0.004400	            2.049498	           -0.125777	           -0.548182	          440.576592	           27.945498	           -0.278849	            0.005435	           -0.685819	            0.002165	           -1.740308	           -0.110387
            1.000000	           -1.149776	          407.695931	          -25.167249	           -0.274580	            0.006226	           -0.407692	           -0.005585	            1.980307	           -0.122245	           -1.062845	          440.390423	           27.991988	           -0.278745	            0.005435	           -0.685710	            0.004106	           -1.701428	           -0.108146
            1.000500	           -0.827818	          407.513928	          -24.756116	           -0.274709	            0.006227	           -0.408035	           -0.004019	            1.978515	           -0.120193	           -1.201984	          440.020965	           28.178446	           -0.278613	            0.005435	           -0.685585	            0.004605	           -1.685894	           -0.107963
            1.001000	           -0.966192	          407.154943	          -25.124167	           -0.274758	            0.006227	           -0.407934	           -0.004662	            1.964754	           -0.121238	           -0.970995	          440.942012	           28.322416	           -0.278808	            0.005434	           -0.685726	            0.003815	           -1.732235	           -0.111264
            1.001500	           -0.828567	          407.875639	          -25.029705	           -0.274518	            0.006227	           -0.407975	           -0.004182	            2.058782	           -0.126339	           -0.875405	          440.390765	           28.085765	           -0.278740	            0.005435	           -0.685754	            0.003446	           -1.733341	           -0.110543
            1.002000	           -0.828843	          407.515697	          -25.168819	           -0.274366	            0.006226	           -0.407757	           -0.004210	            2.069745	           -0.127831	           -1.206698	          441.310513	           28.042262	           -0.278612	            0.005437	           -0.686145	            0.004514	           -1.650792	           -0.104897
            1.002500	           -0.828273	          407.514714	          -24.939539	           -0.274423	            0.006228	           -0.408193	           -0.004115	            2.024568	           -0.123902	           -1.203957	          440.573219	           28.227346	           -0.278980	            0.005434	           -0.685813	            0.004665	           -1.707204	           -0.109380
            1.003000	           -0.828600	          408.055935	          -25.028932	           -0.274414	            0.006226	           -0.407723	           -0.004100	            2.019191	           -0.123851	           -1.201319	          439.836824	           28.177789	           -0.279056	            0.005432	           -0.685395	            0.004689	           -1.716666	           -0.109977
            1.003500	           -0.920058	          408.055524	          -24.936993	           -0.274292	            0.006225	           -0.407577	           -0.004464	            1.979803	           -0.120989	           -1.252239	          440.942169	           27.994039	           -0.278772	            0.005435	           -0.685723	            0.004836	           -1.702778	           -0.108104
            1.004000	           -1.287159	          407.515412	          -25.121825	           -0.274668	            0.006227	           -0.408032	           -0.006101	            1.931617	           -0.119077	           -0.973072	          441.495165	           28.136675	           -0.278835	            0.005436	           -0.686166	            0.003862	           -1.752283	           -0.111674
            1.004500	           -0.874799	          407.515885	          -25.214561	           -0.274511	            0.006227	           -0.407946	           -0.004420	            2.059125	           -0.127406	           -1.063407	          440.573727	           28.227286	           -0.278727	            0.005435	           -0.685857	            0.004040	           -1.673985	           -0.107251
